# xmcd CD database generated by RipIT
#
# Track frame offsets:
# 150
# 20765
# 23672
# 41724
# 46142
# 66863
# 70443
# 90594
# 94892
# 114030
# 118434
#
# Disc length: 1819 seconds
#
# Revision: 0
# Processed by: cddbd v1.5.2PL0 Copyright (c) Steve Scherf et al.
# Submitted via: RipIT 3.9.0 www.suwald.com/ripit/ripit.html on 2018-02-10 at 13:13
#
DISCID=9307190b
DTITLE=Joss Stone and Project Mama Earth - Mama Earth
DYEAR=2017
DGENRE=R&B
TTITLE0=Mama Earth
TTITLE1=Interlude 1
TTITLE2=Waterfall
TTITLE3=Interlude 2
TTITLE4=Spring
TTITLE5=Interlude 3
TTITLE6=What would she say?
TTITLE7=Interlude 4
TTITLE8=Entanglement
TTITLE9=Interlude 5
TTITLE10=Breathe
EXTD=
EXTT0=
EXTT1=
EXTT2=
EXTT3=
EXTT4=
EXTT5=
EXTT6=
EXTT7=
EXTT8=
EXTT9=
EXTT10=
PLAYORDER=
